<svg id="Capa_1" enable-background="new 0 0 483.738 483.738" height="512" viewBox="0 0 483.738 483.738" width="512" xmlns="http://www.w3.org/2000/svg"><g><g id="icon_80_"><g fill="#f6b863"><path d="m102.562 387.293h264.022v26.662h-264.022z"/><path d="m280.659 54.419h31.824l-10.142-42.12c-1.756-8.365-9.961-13.722-18.325-11.966-8.365 1.756-13.722 9.961-11.966 18.325.068.324.147.647.235.966z"/><path d="m411.255 464.59-43.628-181.226h-31.824l45.379 188.534c1.681 6.937 7.885 11.826 15.022 11.84 1.239-.002 2.473-.15 3.677-.442 8.306-2.026 13.398-10.4 11.374-18.706z"/><path d="m110.129 283.364-43.611 181.208c-2.024 8.304 3.065 16.678 11.368 18.706 1.205.298 2.442.452 3.683.46 7.134-.009 13.339-4.89 15.028-11.822l45.373-188.552z"/><path d="m197.079 54.419 8.374-34.771c2.29-8.235-2.53-16.766-10.765-19.056-8.235-2.29-16.766 2.53-19.056 10.765-.089.319-.167.642-.235.966l-10.142 42.096z"/></g><path d="m34.535 32.337h414.668c9.133 0 16.537 7.404 16.537 16.537v270.894c0 9.133-7.404 16.537-16.537 16.537h-414.668c-9.133 0-16.537-7.404-16.537-16.537v-270.895c0-9.132 7.404-16.536 16.537-16.536z" fill="#dbd8dd"/><path d="m38.354 52.686h407.042v263.262h-407.042z" fill="#eeefee"/><path d="m384.588 144.139v151.571h-285.415v-65.357l106.328-70.573 56.081 64.839z" fill="#ef5261"/><path d="m99.173 184.326v-12.511l107.265-71.198 56.099 64.868 122.051-79.849v12.453l-123.961 81.11-56.063-64.821z" fill="#575b6d"/><circle cx="261.582" cy="171.06" fill="#eaa14e" r="20.851"/><circle cx="381.176" cy="93.869" fill="#f6c863" r="20.851"/><circle cx="205.919" cy="106.481" fill="#69b0ee" r="20.851"/><circle cx="102.562" cy="176.193" fill="#2cbfae" r="20.851"/></g></g></svg>